<svg width="31" height="30" viewBox="0 0 31 30" fill="none" xmlns="http://www.w3.org/2000/svg">
<path d="M15.6575 9.46617C13.7669 9.46617 13.5432 9.47313 12.7965 9.50555C12.1063 9.53556 11.7314 9.64542 11.4818 9.73785C11.1513 9.8603 10.9155 10.0066 10.6677 10.2426C10.4198 10.479 10.2663 10.7038 10.1382 11.0189C10.0412 11.2568 9.92601 11.6142 9.89453 12.2723C9.86053 12.9839 9.85322 13.1975 9.85322 14.9999C9.85322 16.8023 9.86053 17.0156 9.89453 17.7275C9.92601 18.3855 10.0412 18.7429 10.1382 18.9809C10.2666 19.296 10.4201 19.5208 10.6677 19.7571C10.9155 19.9934 11.1513 20.1397 11.4818 20.2619C11.7314 20.3543 12.1063 20.4642 12.7965 20.4942C13.5429 20.5266 13.7669 20.5336 15.6575 20.5336C17.548 20.5336 17.772 20.5266 18.5184 20.4942C19.2086 20.4642 19.5835 20.3543 19.8331 20.2619C20.1636 20.1394 20.3994 19.9931 20.6472 19.7571C20.8951 19.5208 21.0486 19.296 21.1767 18.9809C21.2737 18.7429 21.3889 18.3855 21.4204 17.7275C21.4544 17.0158 21.4617 16.8023 21.4617 14.9999C21.4617 13.1975 21.4544 12.9842 21.4204 12.2723C21.3889 11.6142 21.2737 11.2568 21.1767 11.0189C21.0483 10.7038 20.8948 10.479 20.6472 10.2426C20.3994 10.0063 20.1636 9.86003 19.8331 9.73785C19.5835 9.64542 19.2086 9.53556 18.5184 9.50555C17.7717 9.47313 17.548 9.46617 15.6575 9.46617ZM15.6575 8.25C17.5803 8.25 17.8214 8.25777 18.5766 8.29073C19.33 8.32341 19.8446 8.43756 20.2951 8.60448C20.7608 8.77703 21.1556 9.00773 21.5491 9.38311C21.9425 9.75822 22.1848 10.1347 22.3655 10.5784C22.5406 11.0079 22.6603 11.4985 22.6946 12.2168C22.7292 12.9368 22.7373 13.1666 22.7373 14.9999C22.7373 16.8331 22.7292 17.063 22.6946 17.7829C22.6603 18.5013 22.5406 18.9919 22.3655 19.4214C22.1845 19.8653 21.9425 20.2418 21.5488 20.6169C21.1551 20.9923 20.7605 21.223 20.2948 21.3955C19.8446 21.5624 19.3297 21.6766 18.5763 21.7093C17.8211 21.7422 17.58 21.75 15.6572 21.75C13.7343 21.75 13.4932 21.7422 12.7381 21.7093C11.9846 21.6766 11.4697 21.5624 11.0195 21.3955C10.5538 21.223 10.159 20.9923 9.76554 20.6169C9.37181 20.2415 9.12984 19.8653 8.94885 19.4214C8.77376 18.9921 8.65404 18.5013 8.61976 17.7829C8.58519 17.063 8.57704 16.8331 8.57704 14.9999C8.57704 13.1666 8.58519 12.9368 8.61976 12.2168C8.65404 11.4985 8.77376 11.0076 8.94885 10.5784C9.12984 10.1344 9.37181 9.75795 9.76554 9.38284C10.1593 9.00746 10.5538 8.77676 11.0195 8.60421C11.4703 8.43756 11.9849 8.32341 12.7383 8.29073C13.4935 8.25777 13.7346 8.25 15.6575 8.25Z" fill="#2C2927"></path>
<path d="M15.6575 11.5342C17.6655 11.5342 19.293 13.0861 19.293 15.0002C19.293 16.9144 17.6652 18.4663 15.6575 18.4663C13.6498 18.4663 12.022 16.9144 12.022 15.0002C12.022 13.0861 13.6495 11.5342 15.6575 11.5342ZM15.6575 17.2501C16.9609 17.2501 18.0173 16.2427 18.0173 15.0002C18.0173 13.7575 16.9607 12.7504 15.6575 12.7504C14.3543 12.7504 13.2976 13.7578 13.2976 15.0002C13.2976 16.2429 14.354 17.2501 15.6575 17.2501Z" fill="#2C2927"></path>
<circle cx="15.5" cy="15" r="14.5" stroke="#2C2927"></circle>
</svg>