<svg width="31" height="30" viewBox="0 0 31 30" fill="none" xmlns="http://www.w3.org/2000/svg">
<circle cx="15.5" cy="15" r="14.5" stroke="#2C2927"></circle>
<path d="M16.02 13.265C16.3182 12.8797 16.6749 12.5636 17.1244 12.3416C17.6537 12.0804 18.2201 11.9694 18.8179 12.0347C19.1718 12.0725 19.5342 12.0947 19.8752 12.1822C20.8668 12.4369 21.4304 13.0847 21.6515 13.9715C21.7742 14.4652 21.8499 14.9772 21.8584 15.4826C21.8841 17.0042 21.8656 18.527 21.8727 20.0499C21.8741 20.2131 21.8142 20.2523 21.6487 20.2497C20.8797 20.2432 20.1106 20.2432 19.3416 20.2497C19.1689 20.251 19.1161 20.2014 19.1161 20.0434C19.1219 18.7295 19.1261 17.4156 19.1147 16.1017C19.1119 15.7713 19.0805 15.4343 19.0006 15.113C18.8579 14.5344 18.4498 14.2549 17.7992 14.2484C17.6023 14.2458 17.3983 14.2549 17.2085 14.298C16.5765 14.4417 16.3054 14.8779 16.1998 15.4186C16.1484 15.6785 16.1299 15.9463 16.1285 16.2101C16.1213 17.4874 16.1256 18.7647 16.1256 20.042C16.1256 20.2458 16.1256 20.2471 15.8973 20.2471C15.1283 20.2471 14.3593 20.2432 13.5902 20.2497C13.4204 20.251 13.3662 20.2066 13.3662 20.046C13.3719 17.507 13.3691 14.968 13.3705 12.4291C13.3705 12.2253 13.3719 12.2253 13.5988 12.224C14.3393 12.224 15.0798 12.228 15.8203 12.2214C15.9758 12.2201 16.03 12.2606 16.0257 12.4056C16.0129 12.6916 16.02 12.9776 16.02 13.265Z" fill="#2C2927"></path>
<path d="M8.95696 16.2316C8.95696 14.9595 8.95981 13.6887 8.9541 12.4166C8.9541 12.2704 8.9912 12.2194 9.16099 12.2207C9.94714 12.2286 10.7333 12.2273 11.5195 12.222C11.665 12.2207 11.7178 12.2547 11.7178 12.3957C11.7135 14.9543 11.7135 17.5141 11.7178 20.0727C11.7178 20.1994 11.6778 20.249 11.5337 20.249C10.7362 20.2451 9.93858 20.2438 9.14101 20.249C8.98406 20.2503 8.9541 20.1915 8.95553 20.0622C8.95838 18.7849 8.95696 17.5076 8.95696 16.2316Z" fill="#2C2927"></path>
<path d="M10.3323 11.152C9.45198 11.152 8.75 10.5121 8.75 9.70755C8.75 8.89388 9.45055 8.25 10.3366 8.25C11.2169 8.25 11.9217 8.90172 11.9217 9.71278C11.9203 10.5121 11.2141 11.152 10.3323 11.152Z" fill="#2C2927"></path>
</svg>