<svg xmlns="http://www.w3.org/2000/svg" width="24" height="24" viewBox="0 0 24 24" fill="none" class="injected-svg" data-src="https://cdn.hugeicons.com/icons/camera-02-stroke-standard.svg" xmlns:xlink="http://www.w3.org/1999/xlink" role="img" color="#000000">
<path d="M15.5029 14C15.5029 15.933 13.9353 17.5 12.0015 17.5C10.0677 17.5 8.5 15.933 8.5 14C8.5 12.067 10.0677 10.5 12.0015 10.5C13.9353 10.5 15.5029 12.067 15.5029 14Z" stroke="#000000" stroke-width="1.5"></path>
<path d="M12 6H12.0001" stroke="#000000" stroke-width="1.5" stroke-linecap="round" stroke-linejoin="round"></path>
<path d="M4 6H7.5L8.27208 3.68377C8.40819 3.27543 8.79033 3 9.22076 3H14.7792C15.2097 3 15.5918 3.27543 15.7279 3.68377L16.5 6H20C21.1046 6 22 6.89543 22 8V19C22 20.1046 21.1046 21 20 21H4C2.89543 21 2 20.1046 2 19V8C2 6.89543 2.89543 6 4 6Z" stroke="#000000" stroke-width="1.5" stroke-linecap="round" stroke-linejoin="round"></path>
</svg>